<svg id="visual" viewBox="0 0 960 540" width="960" height="540" xmlns="http://www.w3.org/2000/svg" xmlns:xlink="http://www.w3.org/1999/xlink" version="1.1"><rect x="0" y="0" width="960" height="540" fill="#1e1c12"></rect><defs><linearGradient id="grad1_0" x1="43.8%" y1="0%" x2="100%" y2="100%"><stop offset="14.444444444444446%" stop-color="#00e4ec" stop-opacity="1"></stop><stop offset="85.55555555555554%" stop-color="#00e4ec" stop-opacity="1"></stop></linearGradient></defs><defs><linearGradient id="grad1_1" x1="43.8%" y1="0%" x2="100%" y2="100%"><stop offset="14.444444444444446%" stop-color="#00e4ec" stop-opacity="1"></stop><stop offset="85.55555555555554%" stop-color="#36c5b9" stop-opacity="1"></stop></linearGradient></defs><defs><linearGradient id="grad1_2" x1="43.8%" y1="0%" x2="100%" y2="100%"><stop offset="14.444444444444446%" stop-color="#47a58d" stop-opacity="1"></stop><stop offset="85.55555555555554%" stop-color="#36c5b9" stop-opacity="1"></stop></linearGradient></defs><defs><linearGradient id="grad1_3" x1="43.8%" y1="0%" x2="100%" y2="100%"><stop offset="14.444444444444446%" stop-color="#47a58d" stop-opacity="1"></stop><stop offset="85.55555555555554%" stop-color="#4c8768" stop-opacity="1"></stop></linearGradient></defs><defs><linearGradient id="grad1_4" x1="43.8%" y1="0%" x2="100%" y2="100%"><stop offset="14.444444444444446%" stop-color="#49694a" stop-opacity="1"></stop><stop offset="85.55555555555554%" stop-color="#4c8768" stop-opacity="1"></stop></linearGradient></defs><defs><linearGradient id="grad1_5" x1="43.8%" y1="0%" x2="100%" y2="100%"><stop offset="14.444444444444446%" stop-color="#49694a" stop-opacity="1"></stop><stop offset="85.55555555555554%" stop-color="#3f4d32" stop-opacity="1"></stop></linearGradient></defs><defs><linearGradient id="grad1_6" x1="43.8%" y1="0%" x2="100%" y2="100%"><stop offset="14.444444444444446%" stop-color="#303321" stop-opacity="1"></stop><stop offset="85.55555555555554%" stop-color="#3f4d32" stop-opacity="1"></stop></linearGradient></defs><defs><linearGradient id="grad1_7" x1="43.8%" y1="0%" x2="100%" y2="100%"><stop offset="14.444444444444446%" stop-color="#303321" stop-opacity="1"></stop><stop offset="85.55555555555554%" stop-color="#1e1c12" stop-opacity="1"></stop></linearGradient></defs><defs><linearGradient id="grad2_0" x1="0%" y1="0%" x2="56.3%" y2="100%"><stop offset="14.444444444444446%" stop-color="#00e4ec" stop-opacity="1"></stop><stop offset="85.55555555555554%" stop-color="#00e4ec" stop-opacity="1"></stop></linearGradient></defs><defs><linearGradient id="grad2_1" x1="0%" y1="0%" x2="56.3%" y2="100%"><stop offset="14.444444444444446%" stop-color="#36c5b9" stop-opacity="1"></stop><stop offset="85.55555555555554%" stop-color="#00e4ec" stop-opacity="1"></stop></linearGradient></defs><defs><linearGradient id="grad2_2" x1="0%" y1="0%" x2="56.3%" y2="100%"><stop offset="14.444444444444446%" stop-color="#36c5b9" stop-opacity="1"></stop><stop offset="85.55555555555554%" stop-color="#47a58d" stop-opacity="1"></stop></linearGradient></defs><defs><linearGradient id="grad2_3" x1="0%" y1="0%" x2="56.3%" y2="100%"><stop offset="14.444444444444446%" stop-color="#4c8768" stop-opacity="1"></stop><stop offset="85.55555555555554%" stop-color="#47a58d" stop-opacity="1"></stop></linearGradient></defs><defs><linearGradient id="grad2_4" x1="0%" y1="0%" x2="56.3%" y2="100%"><stop offset="14.444444444444446%" stop-color="#4c8768" stop-opacity="1"></stop><stop offset="85.55555555555554%" stop-color="#49694a" stop-opacity="1"></stop></linearGradient></defs><defs><linearGradient id="grad2_5" x1="0%" y1="0%" x2="56.3%" y2="100%"><stop offset="14.444444444444446%" stop-color="#3f4d32" stop-opacity="1"></stop><stop offset="85.55555555555554%" stop-color="#49694a" stop-opacity="1"></stop></linearGradient></defs><defs><linearGradient id="grad2_6" x1="0%" y1="0%" x2="56.3%" y2="100%"><stop offset="14.444444444444446%" stop-color="#3f4d32" stop-opacity="1"></stop><stop offset="85.55555555555554%" stop-color="#303321" stop-opacity="1"></stop></linearGradient></defs><defs><linearGradient id="grad2_7" x1="0%" y1="0%" x2="56.3%" y2="100%"><stop offset="14.444444444444446%" stop-color="#1e1c12" stop-opacity="1"></stop><stop offset="85.55555555555554%" stop-color="#303321" stop-opacity="1"></stop></linearGradient></defs><g transform="translate(960, 0)"><path d="M0 540C-20.5 527.8 -41.1 515.7 -62.1 511.2C-83.1 506.8 -104.6 510.2 -124.7 505.9C-144.8 501.6 -163.6 489.6 -181.9 479.7C-200.3 469.7 -218.2 461.7 -240.7 458.7C-263.3 455.6 -290.5 457.6 -306.8 444.4C-323 431.2 -328.2 402.9 -340.8 384.7C-353.4 366.6 -373.4 358.6 -392.2 347.5C-411 336.4 -428.7 322.2 -441.1 304.5C-453.5 286.8 -460.7 265.6 -466.6 244.9C-472.6 224.2 -477.4 204 -487.1 184.7C-496.9 165.5 -511.6 147.3 -514.6 126.8C-517.6 106.4 -509 83.6 -511.2 62.1C-513.5 40.6 -526.8 20.3 -540 0L0 0Z" fill="#272719"></path><path d="M0 472.5C-18 461.9 -35.9 451.2 -54.3 447.3C-72.7 443.5 -91.5 446.4 -109.1 442.6C-126.7 438.9 -143.1 428.4 -159.2 419.7C-175.2 411 -190.9 404 -210.6 401.3C-230.4 398.7 -254.2 400.4 -268.4 388.9C-282.6 377.3 -287.2 352.5 -298.2 336.6C-309.3 320.8 -326.7 313.8 -343.2 304C-359.7 294.3 -375.1 281.9 -386 266.4C-396.8 250.9 -403.1 232.4 -408.3 214.3C-413.5 196.2 -417.7 178.5 -426.3 161.7C-434.8 144.8 -447.6 128.9 -450.3 111C-452.9 93.1 -445.3 73.1 -447.3 54.3C-449.3 35.5 -460.9 17.7 -472.5 0L0 0Z" fill="#384029"></path><path d="M0 405C-15.4 395.9 -30.8 386.7 -46.6 383.4C-62.3 380.1 -78.4 382.6 -93.5 379.4C-108.6 376.2 -122.7 367.2 -136.4 359.7C-150.2 352.3 -163.6 346.3 -180.5 344C-197.5 341.7 -217.9 343.2 -230.1 333.3C-242.2 323.4 -246.2 302.2 -255.6 288.6C-265.1 274.9 -280.1 268.9 -294.2 260.6C-308.3 252.3 -321.5 241.6 -330.8 228.4C-340.1 215.1 -345.5 199.2 -350 183.7C-354.5 168.2 -358 153 -365.4 138.6C-372.7 124.1 -383.7 110.5 -385.9 95.1C-388.2 79.8 -381.7 62.7 -383.4 46.6C-385.1 30.4 -395.1 15.2 -405 0L0 0Z" fill="#445b3d"></path><path d="M0 337.5C-12.8 329.9 -25.7 322.3 -38.8 319.5C-51.9 316.8 -65.4 318.8 -77.9 316.2C-90.5 313.5 -102.2 306 -113.7 299.8C-125.2 293.6 -136.3 288.6 -150.5 286.7C-164.6 284.8 -181.6 286 -191.7 277.8C-201.9 269.5 -205.2 251.8 -213 240.5C-220.9 229.1 -233.4 224.1 -245.1 217.2C-256.9 210.2 -267.9 201.4 -275.7 190.3C-283.5 179.2 -287.9 166 -291.6 153.1C-295.4 140.1 -298.4 127.5 -304.5 115.5C-310.6 103.5 -319.7 92.1 -321.6 79.3C-323.5 66.5 -318.1 52.2 -319.5 38.8C-321 25.3 -329.2 12.7 -337.5 0L0 0Z" fill="#4b7858"></path><path d="M0 270C-10.3 263.9 -20.5 257.8 -31 255.6C-41.5 253.4 -52.3 255.1 -62.3 252.9C-72.4 250.8 -81.8 244.8 -91 239.8C-100.1 234.8 -109.1 230.8 -120.4 229.3C-131.6 227.8 -145.3 228.8 -153.4 222.2C-161.5 215.6 -164.1 201.4 -170.4 192.4C-176.7 183.3 -186.7 179.3 -196.1 173.7C-205.5 168.2 -214.4 161.1 -220.6 152.2C-226.8 143.4 -230.3 132.8 -233.3 122.5C-236.3 112.1 -238.7 102 -243.6 92.4C-248.4 82.8 -255.8 73.7 -257.3 63.4C-258.8 53.2 -254.5 41.8 -255.6 31C-256.8 20.3 -263.4 10.1 -270 0L0 0Z" fill="#4b9679"></path><path d="M0 202.5C-7.7 197.9 -15.4 193.4 -23.3 191.7C-31.2 190.1 -39.2 191.3 -46.8 189.7C-54.3 188.1 -61.3 183.6 -68.2 179.9C-75.1 176.1 -81.8 173.1 -90.3 172C-98.7 170.9 -108.9 171.6 -115 166.7C-121.1 161.7 -123.1 151.1 -127.8 144.3C-132.5 137.5 -140 134.5 -147.1 130.3C-154.1 126.1 -160.8 120.8 -165.4 114.2C-170.1 107.5 -172.8 99.6 -175 91.8C-177.2 84.1 -179 76.5 -182.7 69.3C-186.3 62.1 -191.8 55.2 -193 47.6C-194.1 39.9 -190.9 31.3 -191.7 23.3C-192.6 15.2 -197.5 7.6 -202.5 0L0 0Z" fill="#41b5a2"></path><path d="M0 135C-5.1 132 -10.3 128.9 -15.5 127.8C-20.8 126.7 -26.1 127.5 -31.2 126.5C-36.2 125.4 -40.9 122.4 -45.5 119.9C-50.1 117.4 -54.5 115.4 -60.2 114.7C-65.8 113.9 -72.6 114.4 -76.7 111.1C-80.7 107.8 -82.1 100.7 -85.2 96.2C-88.4 91.6 -93.4 89.6 -98.1 86.9C-102.8 84.1 -107.2 80.5 -110.3 76.1C-113.4 71.7 -115.2 66.4 -116.7 61.2C-118.2 56.1 -119.3 51 -121.8 46.2C-124.2 41.4 -127.9 36.8 -128.6 31.7C-129.4 26.6 -127.2 20.9 -127.8 15.5C-128.4 10.1 -131.7 5.1 -135 0L0 0Z" fill="#26d4d2"></path><path d="M0 67.5C-2.6 66 -5.1 64.5 -7.8 63.9C-10.4 63.4 -13.1 63.8 -15.6 63.2C-18.1 62.7 -20.4 61.2 -22.7 60C-25 58.7 -27.3 57.7 -30.1 57.3C-32.9 57 -36.3 57.2 -38.3 55.6C-40.4 53.9 -41 50.4 -42.6 48.1C-44.2 45.8 -46.7 44.8 -49 43.4C-51.4 42 -53.6 40.3 -55.1 38.1C-56.7 35.8 -57.6 33.2 -58.3 30.6C-59.1 28 -59.7 25.5 -60.9 23.1C-62.1 20.7 -63.9 18.4 -64.3 15.9C-64.7 13.3 -63.6 10.4 -63.9 7.8C-64.2 5.1 -65.8 2.5 -67.5 0L0 0Z" fill="#00e4ec"></path></g><g transform="translate(0, 540)"><path d="M0 -540C21 -531.9 42 -523.7 63.3 -521.2C84.6 -518.6 106.3 -521.6 128.5 -521.4C150.8 -521.2 173.6 -517.8 191.5 -504.9C209.4 -492 222.4 -469.5 239.3 -456C256.3 -442.5 277.2 -437.9 296.5 -429.6C315.9 -421.3 333.7 -409.4 352.1 -397.5C370.5 -385.5 389.5 -373.6 402 -356.1C414.4 -338.6 420.2 -315.7 428 -295.4C435.7 -275.1 445.4 -257.5 457.8 -240.3C470.2 -223.1 485.4 -206.3 491.8 -186.5C498.3 -166.7 496 -143.8 498.1 -122.8C500.2 -101.7 506.5 -82.6 514.2 -62.4C521.9 -42.3 531 -21.1 540 0L0 0Z" fill="#272719"></path><path d="M0 -472.5C18.4 -465.4 36.7 -458.3 55.4 -456C74 -453.8 93 -456.4 112.4 -456.2C131.9 -456.1 151.9 -453.1 167.6 -441.8C183.2 -430.5 194.6 -410.8 209.4 -399C224.2 -387.2 242.5 -383.1 259.5 -375.9C276.4 -368.7 292 -358.2 308.1 -347.8C324.2 -337.3 340.8 -326.9 351.7 -311.6C362.6 -296.3 367.7 -276.2 374.5 -258.5C381.2 -240.7 389.7 -225.3 400.6 -210.2C411.4 -195.2 424.7 -180.5 430.3 -163.2C436 -145.9 434 -125.8 435.8 -107.4C437.6 -89 443.2 -72.3 449.9 -54.6C456.7 -37 464.6 -18.5 472.5 0L0 0Z" fill="#384029"></path><path d="M0 -405C15.7 -398.9 31.5 -392.8 47.5 -390.9C63.5 -389 79.7 -391.2 96.4 -391C113.1 -390.9 130.2 -388.4 143.6 -378.7C157 -369 166.8 -352.2 179.5 -342C192.2 -331.9 207.9 -328.4 222.4 -322.2C236.9 -316 250.3 -307.1 264.1 -298.1C277.9 -289.1 292.1 -280.2 301.5 -267.1C310.8 -254 315.2 -236.8 321 -221.5C326.8 -206.3 334 -193.1 343.3 -180.2C352.6 -167.3 364 -154.8 368.9 -139.9C373.7 -125 372 -107.8 373.6 -92.1C375.1 -76.3 379.9 -61.9 385.7 -46.8C391.4 -31.7 398.2 -15.9 405 0L0 0Z" fill="#445b3d"></path><path d="M0 -337.5C13.1 -332.4 26.2 -327.3 39.6 -325.7C52.9 -324.1 66.4 -326 80.3 -325.9C94.2 -325.8 108.5 -323.6 119.7 -315.6C130.9 -307.5 139 -293.5 149.6 -285C160.2 -276.5 173.2 -273.7 185.3 -268.5C197.4 -263.3 208.6 -255.9 220.1 -248.4C231.6 -240.9 243.5 -233.5 251.2 -222.6C259 -211.7 262.6 -197.3 267.5 -184.6C272.3 -171.9 278.4 -160.9 286.1 -150.2C293.9 -139.4 303.3 -129 307.4 -116.6C311.4 -104.2 310 -89.9 311.3 -76.7C312.6 -63.6 316.6 -51.6 321.4 -39C326.2 -26.4 331.9 -13.2 337.5 0L0 0Z" fill="#4b7858"></path><path d="M0 -270C10.5 -265.9 21 -261.9 31.6 -260.6C42.3 -259.3 53.1 -260.8 64.3 -260.7C75.4 -260.6 86.8 -258.9 95.7 -252.5C104.7 -246 111.2 -234.8 119.7 -228C128.1 -221.2 138.6 -218.9 148.3 -214.8C157.9 -210.7 166.9 -204.7 176.1 -198.7C185.3 -192.8 194.8 -186.8 201 -178C207.2 -169.3 210.1 -157.8 214 -147.7C217.9 -137.5 222.7 -128.7 228.9 -120.1C235.1 -111.5 242.7 -103.2 245.9 -93.3C249.1 -83.4 248 -71.9 249 -61.4C250.1 -50.9 253.3 -41.3 257.1 -31.2C261 -21.1 265.5 -10.6 270 0L0 0Z" fill="#4b9679"></path><path d="M0 -202.5C7.9 -199.5 15.7 -196.4 23.7 -195.4C31.7 -194.5 39.9 -195.6 48.2 -195.5C56.5 -195.5 65.1 -194.2 71.8 -189.3C78.5 -184.5 83.4 -176.1 89.7 -171C96.1 -165.9 103.9 -164.2 111.2 -161.1C118.5 -158 125.1 -153.5 132 -149C138.9 -144.6 146.1 -140.1 150.7 -133.5C155.4 -127 157.6 -118.4 160.5 -110.8C163.4 -103.2 167 -96.5 171.7 -90.1C176.3 -83.7 182 -77.4 184.4 -69.9C186.9 -62.5 186 -53.9 186.8 -46C187.6 -38.2 189.9 -31 192.8 -23.4C195.7 -15.9 199.1 -7.9 202.5 0L0 0Z" fill="#41b5a2"></path><path d="M0 -135C5.2 -133 10.5 -130.9 15.8 -130.3C21.2 -129.7 26.6 -130.4 32.1 -130.3C37.7 -130.3 43.4 -129.5 47.9 -126.2C52.3 -123 55.6 -117.4 59.8 -114C64.1 -110.6 69.3 -109.5 74.1 -107.4C79 -105.3 83.4 -102.4 88 -99.4C92.6 -96.4 97.4 -93.4 100.5 -89C103.6 -84.7 105.1 -78.9 107 -73.8C108.9 -68.8 111.3 -64.4 114.4 -60.1C117.5 -55.8 121.3 -51.6 123 -46.6C124.6 -41.7 124 -35.9 124.5 -30.7C125 -25.4 126.6 -20.6 128.6 -15.6C130.5 -10.6 132.7 -5.3 135 0L0 0Z" fill="#26d4d2"></path><path d="M0 -67.5C2.6 -66.5 5.2 -65.5 7.9 -65.1C10.6 -64.8 13.3 -65.2 16.1 -65.2C18.8 -65.2 21.7 -64.7 23.9 -63.1C26.2 -61.5 27.8 -58.7 29.9 -57C32 -55.3 34.6 -54.7 37.1 -53.7C39.5 -52.7 41.7 -51.2 44 -49.7C46.3 -48.2 48.7 -46.7 50.2 -44.5C51.8 -42.3 52.5 -39.5 53.5 -36.9C54.5 -34.4 55.7 -32.2 57.2 -30C58.8 -27.9 60.7 -25.8 61.5 -23.3C62.3 -20.8 62 -18 62.3 -15.3C62.5 -12.7 63.3 -10.3 64.3 -7.8C65.2 -5.3 66.4 -2.6 67.5 0L0 0Z" fill="#00e4ec"></path></g></svg>