<svg id="visual" viewBox="0 0 900 600" width="900" height="600" xmlns="http://www.w3.org/2000/svg" xmlns:xlink="http://www.w3.org/1999/xlink" version="1.1"><rect x="0" y="0" width="900" height="600" fill="#b68576"></rect><defs><linearGradient id="grad1_0" x1="33.3%" y1="0%" x2="100%" y2="100%"><stop offset="20%" stop-color="#4f4637" stop-opacity="1"></stop><stop offset="80%" stop-color="#4f4637" stop-opacity="1"></stop></linearGradient></defs><defs><linearGradient id="grad1_1" x1="33.3%" y1="0%" x2="100%" y2="100%"><stop offset="20%" stop-color="#4f4637" stop-opacity="1"></stop><stop offset="80%" stop-color="#615341" stop-opacity="1"></stop></linearGradient></defs><defs><linearGradient id="grad1_2" x1="33.3%" y1="0%" x2="100%" y2="100%"><stop offset="20%" stop-color="#755f4c" stop-opacity="1"></stop><stop offset="80%" stop-color="#615341" stop-opacity="1"></stop></linearGradient></defs><defs><linearGradient id="grad1_3" x1="33.3%" y1="0%" x2="100%" y2="100%"><stop offset="20%" stop-color="#755f4c" stop-opacity="1"></stop><stop offset="80%" stop-color="#8a6c59" stop-opacity="1"></stop></linearGradient></defs><defs><linearGradient id="grad1_4" x1="33.3%" y1="0%" x2="100%" y2="100%"><stop offset="20%" stop-color="#a07866" stop-opacity="1"></stop><stop offset="80%" stop-color="#8a6c59" stop-opacity="1"></stop></linearGradient></defs><defs><linearGradient id="grad1_5" x1="33.3%" y1="0%" x2="100%" y2="100%"><stop offset="20%" stop-color="#a07866" stop-opacity="1"></stop><stop offset="80%" stop-color="#b68576" stop-opacity="1"></stop></linearGradient></defs><defs><linearGradient id="grad2_0" x1="0%" y1="0%" x2="66.7%" y2="100%"><stop offset="20%" stop-color="#4f4637" stop-opacity="1"></stop><stop offset="80%" stop-color="#4f4637" stop-opacity="1"></stop></linearGradient></defs><defs><linearGradient id="grad2_1" x1="0%" y1="0%" x2="66.7%" y2="100%"><stop offset="20%" stop-color="#615341" stop-opacity="1"></stop><stop offset="80%" stop-color="#4f4637" stop-opacity="1"></stop></linearGradient></defs><defs><linearGradient id="grad2_2" x1="0%" y1="0%" x2="66.7%" y2="100%"><stop offset="20%" stop-color="#615341" stop-opacity="1"></stop><stop offset="80%" stop-color="#755f4c" stop-opacity="1"></stop></linearGradient></defs><defs><linearGradient id="grad2_3" x1="0%" y1="0%" x2="66.7%" y2="100%"><stop offset="20%" stop-color="#8a6c59" stop-opacity="1"></stop><stop offset="80%" stop-color="#755f4c" stop-opacity="1"></stop></linearGradient></defs><defs><linearGradient id="grad2_4" x1="0%" y1="0%" x2="66.7%" y2="100%"><stop offset="20%" stop-color="#8a6c59" stop-opacity="1"></stop><stop offset="80%" stop-color="#a07866" stop-opacity="1"></stop></linearGradient></defs><defs><linearGradient id="grad2_5" x1="0%" y1="0%" x2="66.7%" y2="100%"><stop offset="20%" stop-color="#b68576" stop-opacity="1"></stop><stop offset="80%" stop-color="#a07866" stop-opacity="1"></stop></linearGradient></defs><g transform="translate(900, 0)"><path d="M0 540.8C-92 523.1 -183.9 505.3 -267 462.5C-350.1 419.6 -424.2 351.7 -468.4 270.4C-512.5 189.2 -526.7 94.6 -540.8 0L0 0Z" fill="#ab7f6e"></path><path d="M0 450.7C-76.6 435.9 -153.3 421.1 -222.5 385.4C-291.7 349.7 -353.5 293.1 -390.3 225.3C-427.1 157.6 -438.9 78.8 -450.7 0L0 0Z" fill="#95725f"></path><path d="M0 360.6C-61.3 348.7 -122.6 336.9 -178 308.3C-233.4 279.7 -282.8 234.4 -312.2 180.3C-341.7 126.1 -351.1 63.1 -360.6 0L0 0Z" fill="#806652"></path><path d="M0 270.4C-46 261.5 -92 252.7 -133.5 231.2C-175 209.8 -212.1 175.8 -234.2 135.2C-256.3 94.6 -263.3 47.3 -270.4 0L0 0Z" fill="#6b5947"></path><path d="M0 180.3C-30.7 174.4 -61.3 168.4 -89 154.2C-116.7 139.9 -141.4 117.2 -156.1 90.1C-170.8 63.1 -175.6 31.5 -180.3 0L0 0Z" fill="#584c3c"></path><path d="M0 90.1C-15.3 87.2 -30.7 84.2 -44.5 77.1C-58.3 69.9 -70.7 58.6 -78.1 45.1C-85.4 31.5 -87.8 15.8 -90.1 0L0 0Z" fill="#4f4637"></path></g><g transform="translate(0, 600)"><path d="M0 -540.8C95.5 -527.2 191 -513.6 270.4 -468.4C349.8 -423.2 413.1 -346.3 455.5 -263C497.9 -179.7 519.4 -89.8 540.8 0L0 0Z" fill="#ab7f6e"></path><path d="M0 -450.7C79.6 -439.3 159.2 -428 225.3 -390.3C291.5 -352.6 344.3 -288.6 379.6 -219.2C414.9 -149.7 432.8 -74.9 450.7 0L0 0Z" fill="#95725f"></path><path d="M0 -360.6C63.7 -351.5 127.3 -342.4 180.3 -312.2C233.2 -282.1 275.4 -230.9 303.7 -175.3C331.9 -119.8 346.2 -59.9 360.6 0L0 0Z" fill="#806652"></path><path d="M0 -270.4C47.8 -263.6 95.5 -256.8 135.2 -234.2C174.9 -211.6 206.6 -173.2 227.8 -131.5C249 -89.8 259.7 -44.9 270.4 0L0 0Z" fill="#6b5947"></path><path d="M0 -180.3C31.8 -175.7 63.7 -171.2 90.1 -156.1C116.6 -141.1 137.7 -115.4 151.8 -87.7C166 -59.9 173.1 -29.9 180.3 0L0 0Z" fill="#584c3c"></path><path d="M0 -90.1C15.9 -87.9 31.8 -85.6 45.1 -78.1C58.3 -70.5 68.9 -57.7 75.9 -43.8C83 -29.9 86.6 -15 90.1 0L0 0Z" fill="#4f4637"></path></g></svg>